<?xml version="1.0" standalone="no"?>
<!DOCTYPE svg PUBLIC "-//W3C//DTD SVG 1.1//EN" "http://www.w3.org/Graphics/SVG/1.1/DTD/svg11.dtd" >
<svg xmlns="http://www.w3.org/2000/svg">
<metadata>
Created by FontForge 20120731 at Mon Aug 22 14:08:56 2016
 By admin
</metadata>
<defs>
<font id="iconfont" horiz-adv-x="1024" >
  <font-face 
    font-family="iconfont"
    font-weight="500"
    font-stretch="normal"
    units-per-em="1024"
    panose-1="2 0 6 3 0 0 0 0 0 0"
    ascent="896"
    descent="-128"
    x-height="792"
    bbox="-0.153846 -146.284 1298.55 896"
    underline-thickness="50"
    underline-position="-100"
    unicode-range="U+0078-E62B"
  />
<missing-glyph horiz-adv-x="374" 
d="M34 0v682h272v-682h-272zM68 34h204v614h-204v-614z" />
    <glyph glyph-name=".notdef" horiz-adv-x="374" 
d="M34 0v682h272v-682h-272zM68 34h204v614h-204v-614z" />
    <glyph glyph-name=".null" horiz-adv-x="0" 
 />
    <glyph glyph-name="nonmarkingreturn" horiz-adv-x="341" 
 />
    <glyph glyph-name="x" unicode="x" horiz-adv-x="1001" 
d="M281 543q-27 -1 -53 -1h-83q-18 0 -36.5 -6t-32.5 -18.5t-23 -32t-9 -45.5v-76h912v41q0 16 -0.5 30t-0.5 18q0 13 -5 29t-17 29.5t-31.5 22.5t-49.5 9h-133v-97h-438v97zM955 310v-52q0 -23 0.5 -52t0.5 -58t-10.5 -47.5t-26 -30t-33 -16t-31.5 -4.5q-14 -1 -29.5 -0.5
t-29.5 0.5h-32l-45 128h-439l-44 -128h-29h-34q-20 0 -45 1q-25 0 -41 9.5t-25.5 23t-13.5 29.5t-4 30v167h911zM163 247q-12 0 -21 -8.5t-9 -21.5t9 -21.5t21 -8.5q13 0 22 8.5t9 21.5t-9 21.5t-22 8.5zM316 123q-8 -26 -14 -48q-5 -19 -10.5 -37t-7.5 -25t-3 -15t1 -14.5
t9.5 -10.5t21.5 -4h37h67h81h80h64h36q23 0 34 12t2 38q-5 13 -9.5 30.5t-9.5 34.5q-5 19 -11 39h-368zM336 498v228q0 11 2.5 23t10 21.5t20.5 15.5t34 6h188q31 0 51.5 -14.5t20.5 -52.5v-227h-327z" />
    <glyph glyph-name="uniE600" unicode="&#xe600;" horiz-adv-x="1027" 
d="M75 332l49 -20l-47 -37h-36zM675 472q4 21 15 31q-3 1 -5 1h-50q-15 0 -29 -3l36 -29h33zM706.5 487q-4.5 0 -8.5 -15h17q-4 15 -8.5 15zM709.5 212q-1.5 0 -4 -3.5t-5 -11.5t-2.5 -17.5t2.5 -17.5t5 -11.5t4 -3.5t4 3.5t4.5 11.5t2 17.5t-2 17.5t-4.5 11.5t-4 3.5z
M694 228q-3 1 -6 1h-4l-117 -76q25 -23 71 -23h50q3 0 6 1q-18 15 -18 48.5t18 48.5zM592 472l-202 165h-77q65 -134 79 -165h200zM1026 335q-3 -24 -47 -38t-84 -14h-190l-414 -272h-77q109 139 130 167q1 1 10 13t11.5 16.5t9.5 16t10 19t5.5 18.5t2.5 22h-34
q-34 0 -80.5 11.5t-75 21.5t-84 32.5t-62.5 25.5q-22 8 -29.5 24.5t1.5 29t27 12.5h1l-54 186h59q71 -93 96 -123q48 -59 134 -63h502q49 0 102 -17q78 -26 118 -66q13 -13 12 -22zM418 367q0 10 -7 17t-17 7t-17 -7t-7 -17t7 -17t17 -7t17 7t7 17zM499 367q0 10 -7 17
t-17 7t-17 -7t-7 -17t7 -17t17 -7t17 7t7 17zM581 367q0 10 -7 17t-17 7t-17 -7t-7 -17t7 -17t17 -7t17 7t7 17zM662 367q0 10 -7 17t-17 7t-17 -7t-7 -17t7 -17t17 -7t17 7t7 17zM744 367q0 10 -7 17t-17 7t-17 -7t-7 -17t7 -17t17 -7t17 7t7 17zM963 364q-19 12 -43 22
q-16 -8 -44 -8q-12 0 -17 -9t0.5 -18.5t18.5 -9.5q26 -1 50.5 6t34.5 17z" />
    <glyph glyph-name="uniE601" unicode="&#xe601;" 
d="M789 232l-32 -32l107 -114h-347v-40h347l-107 -114l32 -32l127 128l38 38l-31 29zM512 895q-104 0 -198.5 -40.5t-163 -109t-109 -163t-40.5 -198.5t40.5 -198.5t109 -163t163 -109t198.5 -40.5h26l1 96h-43v-34q-51 40 -101 96.5t-76 108.5q92 31 166 34h47v34v99v64
h240q-2 -33 -6 -64h41q2 17 4 63h171q-7 -120 -58 -209h48q51 105 51 223q0 104 -40.5 198.5t-109 163t-163 109t-198.5 40.5zM444 846q-122 -113 -161 -192q-75 36 -99 62q42 40 119 78t141 52zM153 683q26 -27 111 -69q-40 -97 -45 -204h-176q8 155 110 273zM166 73
q-49 56 -84 138.5t-39 158.5h176q6 -117 47 -219q-46 -23 -100 -78zM445 -80q-67 15 -139 48t-114 72q57 60 90 77q41 -83 163 -197zM492 208q-98 -4 -192 -38q-34 84 -40 200h232v-162v0zM492 410h-233q4 103 41 193q99 -35 192 -39v-154v0zM492 605q-97 4 -178 31
q26 50 75 103t103 95v-229v0zM839 716q-36 -38 -90 -65q-23 45 -70.5 104t-89.5 99q58 -14 132.5 -55.5t117.5 -82.5zM534 846q49 -38 99.5 -97.5t78.5 -113.5q-73 -26 -180 -30zM532 410v157q122 5 197 32q37 -88 41 -189h-238zM811 410q-5 108 -45 207q82 41 105 66
q102 -118 111 -273h-171v0z" />
    <glyph glyph-name="uniE602" unicode="&#xe602;" 
d="M422 252h176l-54 -113h-68zM1018 -127h-420h-177h-421q-1 63 14 123t48.5 118.5t92 112t139.5 96.5q-100 106 -100 253q0 87 42.5 160.5t116 116.5t159.5 43t159 -43t115.5 -116.5t42.5 -160.5q0 -149 -102 -255q102 -52 169 -127.5t95 -155t27 -165.5zM951 -63
q-6 41 -20.5 80.5t-42 84t-76.5 87t-114 75.5l-77 40l60 62q84 87 84 210q0 106 -74.5 181t-179 75t-179 -75t-74.5 -181q0 -122 82 -209l57 -61l-74 -39q-227 -121 -255 -330h366l28 132h95l27 -132h367z" />
    <glyph glyph-name="uniE603" unicode="&#xe603;" 
d="M786 -128h-640q-43 0 -73 29.5t-30 72.5v820q0 43 30 72.5t73 29.5h729q44 0 73.5 -29.5t29.5 -72.5v-743q0 -14 -9 -23t-23.5 -9t-23 9t-8.5 23v743q0 14 -12 26t-27 12h-729q-15 0 -27 -12t-12 -26v-820q0 -14 12 -26t27 -12h640q14 0 23 -9t9 -23t-9 -23t-23 -9z
M799 557h-576q-15 0 -23.5 8.5t-8.5 23.5v128q0 14 8.5 23t23.5 9h576q14 0 23 -9t9 -23v-128q0 -15 -9 -23.5t-23 -8.5zM255 621h512v64h-512v-64zM331 371h-83q-14 0 -23 9t-9 23v51q0 15 9 23.5t23 8.5h90q14 0 23 -8.5t9 -23.5v-51q-11 -32 -39 -32zM555 371h-89
q-15 0 -23.5 9t-8.5 23v51q0 15 8.5 23.5t23.5 8.5h89q15 0 23.5 -8.5t8.5 -23.5v-51q0 -14 -8.5 -23t-23.5 -9zM773 371h-90q-14 0 -23 9t-9 23v51q0 15 9 23.5t23 8.5h90q14 0 23 -8.5t9 -23.5v-51q0 -14 -9 -23t-23 -9zM331 198h-83q-14 0 -23 9t-9 23v52q0 14 9 23t23 9
h90q14 0 23 -9t9 -23v-52q-11 -32 -39 -32zM555 198h-89q-15 0 -23.5 9t-8.5 23v52q0 14 8.5 23t23.5 9h89q15 0 23.5 -9t8.5 -23v-52q0 -14 -8.5 -23t-23.5 -9zM773 198h-90q-14 0 -23 9t-9 23v52q0 14 9 23t23 9h90q14 0 23 -9t9 -23v-52q0 -14 -9 -23t-23 -9zM331 19h-83
q-14 0 -23 9t-9 23v51q0 15 9 23.5t23 8.5h90q14 0 23 -8.5t9 -23.5v-51q-16 -32 -39 -32zM555 19h-89q-15 0 -23.5 9t-8.5 23v51q0 15 8.5 23.5t23.5 8.5h89q15 0 23.5 -8.5t8.5 -23.5v-51q0 -11 -9 -21.5t-23 -10.5zM773 19h-90q-14 0 -23 9t-9 23v51q0 15 9 23.5t23 8.5
h90q14 0 23 -8.5t9 -23.5v-51q0 -11 -9.5 -21.5t-22.5 -10.5z" />
    <glyph glyph-name="uniE604" unicode="&#xe604;" 
d="M384 417h-116q-12 0 -20 8.5t-8 20t8 19.5t20 8h48l-56 97q-6 10 -3 21.5t13 17t21.5 2.5t16.5 -13l67 -115q3 -5 3 -10h67q1 4 3 8l67 115q5 10 16.5 13t21.5 -2.5t13 -16.5t-3 -21l-55 -96h49q11 0 19.5 -8t8.5 -19.5t-8.5 -20t-19.5 -8.5h-117v-78h117q11 0 19.5 -8
t8.5 -19.5t-8.5 -19.5t-19.5 -8h-117v-117q0 -12 -8 -20t-19.5 -8t-20 8t-8.5 20v117h-116q-12 0 -20 8t-8 19.5t8 19.5t20 8h116v78zM959 663q-71 109 -185 171t-245 62q-104 0 -199 -40.5t-163.5 -109t-109 -163.5t-40.5 -199t40.5 -199t109 -163.5t163.5 -109t199 -40.5
q133 0 248.5 64.5t185.5 176.5q8 12 5 25t-15 20.5t-25.5 4.5t-20.5 -15q-61 -97 -161.5 -153t-216.5 -56q-91 0 -173 35t-142 95t-95 142t-35 173t35 173t95 142t142 95t173 35q114 0 213 -54t161 -149q7 -11 20.5 -14t25 4.5t14.5 21t-4 25.5zM657 311.5q0 11.5 8 19.5
t20 8h289q12 0 20 -8t8 -19.5t-8 -19.5t-20 -8h-289q-12 0 -20 8t-8 19.5zM657 445.5q0 11.5 8 19.5t20 8h289q12 0 20 -8t8 -19.5t-8 -20t-20 -8.5h-289q-12 0 -20 8.5t-8 20z" />
    <glyph glyph-name="uniE605" unicode="&#xe605;" 
d="M913 748q-115 54 -234.5 100.5t-162.5 46.5q-42 0 -162 -47t-236 -101q-19 -8 -30 -26t-11 -39q5 -219 67 -377q32 -81 76 -152.5t86 -119t84 -83.5t71.5 -54t48.5 -22q3 -1 6 -1t6 1q26 7 69.5 38t96 82.5t107 134t91.5 176.5q63 158 68 378q0 18 -12 37.5t-29 27.5z
M841 323q-34 -87 -84 -163.5t-98 -124t-84.5 -75.5t-58.5 -37q-18 6 -44.5 23.5t-64 51.5t-74 77.5t-75.5 109t-68 138.5q-60 150 -64 360q0 14 12 20q132 61 240.5 102.5t137.5 41.5q30 0 138 -41t239 -102q3 -2 7.5 -9t4.5 -11q-4 -212 -64 -361zM545 434l-17 -24
q97 -62 168 -114l22 31q-31 20 -78 49q40 17 82 34l-22 30q-46 -25 -89 -46q-30 19 -66 40zM500 300q42 21 84 36q-2 17 -3 35q-50 -22 -84 -35v113h153v-11h32v198h-218v-289q0 -17 -13 -29l25 -33q12 9 24 15zM497 607h153v-50h-153v50zM497 528h153v-49h-153v49zM481 271
q-63 2 -90 44v185h-85v-32h52v-146q-18 -16 -56 -53l18 -36q34 41 52 58q30 -50 103 -51q121 -3 248 -2q7 20 12 35q-131 -4 -254 -2zM417 564q-39 56 -61 83l-28 -19q23 -30 58 -85z" />
    <glyph glyph-name="uniE606" unicode="&#xe606;" 
d="M390 833h86v-43h-64q-13 0 -22 -9t-9 -22t9 -22t22 -9h190q13 0 22 9t9 22t-9 22t-22 9h-64v43h87q13 0 22 9.5t9 22t-9 21.5t-22 9h-235q-13 0 -22 -9t-9 -21.5t9 -22t22 -9.5v0zM250 520q0 -13 9 -22t22 -9h451q12 0 21 9t9 22t-9 22t-21 9h-451q-13 0 -22 -9t-9 -22v0
zM732 383h-451q-13 0 -22 -9t-9 -22t9 -22t22 -9h451q12 0 21 9t9 22t-9 22t-21 9v0zM732 215h-451q-13 0 -22 -9t-9 -21.5t9 -22t22 -9.5h451q12 0 21 9.5t9 22t-9 21.5t-21 9v0zM961 687q-2 26 -13 49q-18 41 -57 62q-31 16 -62 17h-1h-54h-1q-12 0 -21 -9t-9.5 -22t9 -22
t21.5 -9h55q18 -1 35 -11q31 -18 36 -61v-664q0 -34 -22.5 -58t-54.5 -24h-278h-353q-32 0 -55 23.5t-23 57.5q0 662 1 665q5 43 35 61q17 9 36 10h54q13 0 22 9.5t9 22t-9 21.5t-22 9h-55q-31 0 -62 -17q-64 -34 -71 -116v-5v-5v-655q0 -59 41 -101t99 -42h631
q58 0 98.5 42t40.5 101v54v617v0z" />
    <glyph glyph-name="uniE607" unicode="&#xe607;" 
d="M390 833h86v-43h-64q-13 0 -22 -9t-9 -22t9 -22t22 -9h190q13 0 22 9t9 22t-9 22t-22 9h-64v43h87q13 0 22 9.5t9 22t-9 21.5t-22 9h-235q-13 0 -22 -9t-9 -21.5t9 -22t22 -9.5v0zM250 520q0 -13 9 -22t22 -9h451q12 0 21 9t9 22t-9 22t-21 9h-451q-13 0 -22 -9t-9 -22v0
zM732 383h-451q-13 0 -22 -9t-9 -22t9 -22t22 -9h451q12 0 21 9t9 22t-9 22t-21 9v0zM732 215h-451q-13 0 -22 -9t-9 -21.5t9 -22t22 -9.5h451q12 0 21 9.5t9 22t-9 21.5t-21 9v0zM961 687q-2 26 -13 49q-18 41 -57 62q-31 16 -62 17h-1h-54h-1q-12 0 -21 -9t-9.5 -22t9 -22
t21.5 -9h55q18 -1 35 -11q31 -18 36 -61v-664q0 -34 -22.5 -58t-54.5 -24h-278h-353q-32 0 -55 23.5t-23 57.5q0 662 1 665q5 43 35 61q17 9 36 10h54q13 0 22 9.5t9 22t-9 21.5t-22 9h-55q-31 0 -62 -17q-64 -34 -71 -116v-5v-5v-655q0 -59 41 -101t99 -42h631
q58 0 98.5 42t40.5 101v54v617v0z" />
    <glyph glyph-name="uniE608" unicode="&#xe608;" 
d="M192 640h576v64h-576v-64zM192 512h576v64h-576v-64zM192 384h256v64h-256v-64zM919 233l-46 46l-169 -170l-105 106l-46 -46l151 -150zM896 896v-384h-64v320h-768v-742l166 166h90l-320 -320v960h896zM578 318q-66 -65 -66 -158t65.5 -158.5t158.5 -65.5t158.5 65.5
t65.5 158.5t-65.5 158.5t-158.5 65.5t-158 -66zM1024 160q0 -119 -84.5 -203.5t-203.5 -84.5t-203.5 84.5t-84.5 203.5t84.5 203.5t203.5 84.5t203.5 -84.5t84.5 -203.5z" />
    <glyph glyph-name="uniE609" unicode="&#xe609;" 
d="M209 646h708v-80h-708v80zM563 554l354 -366h-206l1 -275h-297v275h-206zM563 554z" />
    <glyph glyph-name="uniE60A" unicode="&#xe60a;" 
d="M411 780h75v-38h-56q-11 0 -19 -8t-8 -19.5t8 -19.5t19 -8h167q11 0 19 8t8 19.5t-8 19.5t-19 8h-56v38h76q11 0 19 8t8 19.5t-8 19t-19 7.5h-206q-12 0 -19.5 -7.5t-7.5 -19t7.5 -19.5t19.5 -8v0zM411 780zM288 505q0 -11 7.5 -19t19.5 -8h395q12 0 19.5 8t7.5 19
t-7.5 19t-19.5 8h-395q-12 0 -19.5 -8t-7.5 -19v0zM288 505zM710 385h-395q-12 0 -19.5 -8t-7.5 -19.5t7.5 -19t19.5 -7.5h395q12 0 19.5 7.5t7.5 19t-7.5 19.5t-19.5 8v0zM710 385zM710 237h-395q-12 0 -19.5 -7.5t-7.5 -19t7.5 -19.5t19.5 -8h395q12 0 19.5 8t7.5 19.5
t-7.5 19t-19.5 7.5v0zM710 237zM911 651q-1 23 -11 44q-16 35 -50 54q-27 14 -54 15h-1h-48q-11 0 -19 -8t-8 -19t8 -19t19 -9h48q16 0 31 -9q27 -16 31 -53v-584q0 -30 -19.5 -51t-47.5 -21h-244h-311q-28 0 -48 21t-20 50q1 581 1 584q4 38 31 53q15 9 31 10h48q11 0 19 8
t8 19t-8 19t-19 8h-48h-1q-27 0 -54 -15q-56 -30 -62 -102v-4v-4v-576q0 -52 36 -88.5t86 -36.5h555q50 0 86 36.5t36 88.5v48q0 536 -1 541v0zM911 651z" />
    <glyph glyph-name="uniE60B" unicode="&#xe60b;" 
d="M192 640h576v64h-576v-64zM192 512h576v64h-576v-64zM192 384h256v64h-256v-64zM919 233l-46 46l-169 -170l-105 106l-46 -46l151 -150zM896 896v-384h-64v320h-768v-742l166 166h90l-320 -320v960h896zM577.5 318.5q-65.5 -65.5 -65.5 -158.5t65.5 -158.5t158.5 -65.5
t158.5 65.5t65.5 158.5t-65.5 158.5t-158.5 65.5t-158.5 -65.5zM736 448q119 0 203.5 -84.5t84.5 -203.5t-84.5 -203.5t-203.5 -84.5t-203.5 84.5t-84.5 203.5t84.5 203.5t203.5 84.5z" />
    <glyph glyph-name="uniE60C" unicode="&#xe60c;" 
d="M300 748l456 -447l-456 -446l-35 34l421 412l-421 412z" />
    <glyph glyph-name="uniE60D" unicode="&#xe60d;" 
d="M273 300l432 431l34 -34l-431 -431zM705 -130l-432 431l35 34l431 -431z" />
    <glyph glyph-name="uniE60E" unicode="&#xe60e;" 
d="M376 279q-9 -9 -22.5 -9t-22.5 9t-9 22.5t9 22.5l317 317q9 9 22.5 9t22.5 -9t9 -22.5t-9 -22.5zM693 4q9 -9 9 -22.5t-9 -22.5t-22.5 -9t-22.5 9l-317 317q-9 9 -9 22.5t9 22.5t22.5 9t22.5 -9z" />
    <glyph glyph-name="uniE60F" unicode="&#xe60f;" 
d="M724 279v1q1 1 1 2q7 13 4.5 28t-13.5 26l-344 325q-14 13 -33 12.5t-32.5 -14.5t-13 -33.5t14.5 -32.5l309 -292l-308 -296q-14 -13 -14 -32.5t13 -33.5q14 -14 34 -14q19 0 32 13l341 328l1 1v1l2 2q1 1 6 9zM724 279z" />
    <glyph glyph-name="uniE610" unicode="&#xe610;" 
d="M512 -128q-104 0 -199 40.5t-163.5 109t-109 163.5t-40.5 199t40.5 199t109 163.5t163.5 109t199 40.5t199 -40.5t163.5 -109t109 -163.5t40.5 -199t-40.5 -199t-109 -163.5t-163.5 -109t-199 -40.5zM512 828q-90 0 -172.5 -35.5t-142 -95t-94.5 -141.5t-35 -172t35 -172
t94.5 -141.5t142 -95t172.5 -35.5t172.5 35.5t142 95t94.5 141.5t35 172t-35 172t-94.5 141.5t-142 95t-172.5 35.5zM419 102q-11 0 -18 7.5t-7 18t7 18.5l237 238l-237 238q-7 8 -7 18.5t7.5 18t18 7.5t17.5 -7l273 -275l-273 -275q-7 -7 -18 -7zM419 102z" />
    <glyph glyph-name="uniE611" unicode="&#xe611;" 
d="M534 121l480 479q10 11 10 25.5t-10.5 25t-25 10.5t-25.5 -10l-456 -456l-448 448q-10 11 -24.5 11t-24.5 -10.5t-10 -24.5t10 -25l466 -465q0 -1 6 -4q0 -1 0.5 -2t1.5 -2q10 -10 25 -10t25 10z" />
    <glyph glyph-name="uniE612" unicode="&#xe612;" 
d="M578 384l-132 -132v264z" />
    <glyph glyph-name="uniE613" unicode="&#xe613;" 
d="M512 318l-132 132h264z" />
    <glyph glyph-name="uniE614" unicode="&#xe614;" 
d="M300 405v-1q-1 -1 -1 -2q-7 -13 -4.5 -28t13.5 -26l344 -325q14 -13 33 -12.5t32.5 14.5t13 33.5t-14.5 32.5l-309 292l308 296q14 13 14 32.5t-13 33.5q-14 14 -34 14q-19 0 -32 -13l-341 -328l-1 -1v-1l-2 -2q-1 -1 -6 -9zM300 405z" />
    <glyph glyph-name="uniE615" unicode="&#xe615;" 
d="M544 132l1 1l298 318l-61 56l-242 -258l-261 240l-56 -61z" />
    <glyph glyph-name="uniE616" unicode="&#xe616;" 
d="M576 346q16 16 16 39t-16 39l-383 394q-16 16 -38.5 16t-38 -16t-15.5 -39t16 -39l345 -355l-345 -354q-16 -16 -16 -39t15.5 -39t38 -16t38.5 16zM449 740l345 -355l-345 -354q-16 -16 -16 -39t16 -39t38 -16t38 16l383 393q16 16 16 39t-16 39l-383 394q-16 16 -38 16
t-38 -16t-16 -39t16 -39z" />
    <glyph glyph-name="uniE617" unicode="&#xe617;" 
d="M474 320q16 -16 39 -16t39 16l394 383q16 16 16 38.5t-16 38t-39 15.5t-39 -16l-355 -345l-354 345q-16 16 -39 16t-39 -15.5t-16 -38t16 -38.5zM868 447l-355 -345l-354 345q-16 16 -39 16t-39 -16t-16 -38t16 -38l393 -383q16 -16 39 -16t39 16l394 383q16 16 16 38
t-16 38t-39 16t-39 -16z" />
    <glyph glyph-name="uniE618" unicode="&#xe618;" 
d="M550 448q-16 16 -39 16t-39 -16l-394 -383q-16 -16 -16 -38.5t16 -38t39 -15.5t39 16l355 345l354 -345q16 -16 39 -16t39 15.5t16 38t-16 38.5zM156 321l355 345l354 -345q16 -16 39 -16t39 16t16 38t-16 38l-393 383q-16 16 -39 16t-39 -16l-394 -383q-16 -16 -16 -38
t16 -38t39 -16t39 16z" />
    <glyph glyph-name="uniE619" unicode="&#xe619;" 
d="M632 418h-376v-68h376l-142 -136h100l178 170l-178 170h-100zM9 384q0 -102 39.5 -195.5t107 -161t161 -107t195.5 -39.5t195.5 39.5t161 107t107 161t39.5 195.5t-39.5 195.5t-107 161t-161 107t-195.5 39.5t-195.5 -39.5t-161 -107t-107 -161t-39.5 -195.5zM984 384
q0 -96 -37.5 -183.5t-100.5 -150.5t-150.5 -100.5t-183.5 -37.5t-183.5 37.5t-150.5 100.5t-100.5 150.5t-37.5 183.5t37.5 183.5t100.5 150.5t150.5 100.5t183.5 37.5t183.5 -37.5t150.5 -100.5t100.5 -150.5t37.5 -183.5z" />
    <glyph glyph-name="uniE61A" unicode="&#xe61a;" 
d="M560 609q234 -242 358 -371q14 -15 15.5 -32.5t-8 -31t-23.5 -22.5t-32 -7t-32 17q-35 37 -146.5 152t-172.5 178l-152 -152q-116 -116 -179 -180q-14 -14 -32 -16t-32 7t-23.5 22.5t-8 31t15.5 31.5q121 121 371 373q16 15 40.5 15.5t40.5 -15.5z" />
    <glyph glyph-name="uniE61B" unicode="&#xe61b;" 
d="M32 588q0 29 20 49t48.5 20t48.5 -20l363 -363l363 363q20 20 48.5 20t48.5 -20t20 -48.5t-20 -48.5l-412 -412q-20 -20 -48 -20t-48 20l-412 412q-20 20 -20 48z" />
    <glyph glyph-name="uniE61C" unicode="&#xe61c;" 
d="M795 446q-10 14 -27 14h-32q-13 0 -22.5 -9.5t-9.5 -22.5v-192q0 -13 9.5 -22.5t22.5 -9.5h128q13 0 22.5 9.5t9.5 22.5v48q0 10 -5 18zM864 236h-128v192h32l96 -144v-48zM1008 321l-128 192q-29 43 -80 43h-128v64q0 40 -28 68t-68 28h-480q-40 0 -68 -28t-28 -68v-352
q0 -40 28 -68t68 -28v-96q0 -40 28 -68t68 -28h37q10 -42 44.5 -69t78.5 -27t78.5 27t44.5 69h170q10 -42 44.5 -69t78.5 -27t78.5 27t44.5 69h37q40 0 68 28t28 68v192q0 29 -16 53zM96 236q-13 0 -22.5 9.5t-9.5 22.5v352q0 13 9.5 22.5t22.5 9.5h480q13 0 22.5 -9.5
t9.5 -22.5v-352q0 -13 -9.5 -22.5t-22.5 -9.5h-480zM352.5 -52q-26.5 0 -45.5 18.5t-19 45.5t19 45.5t45.5 18.5t45 -19t18.5 -45t-18.5 -45t-45 -19zM768 -52q-27 0 -45.5 18.5t-18.5 45.5t18.5 45.5t45.5 18.5q26 0 45 -19t19 -45t-19 -45t-45 -19zM960 76
q0 -13 -9.5 -22.5t-22.5 -9.5h-37q-10 42 -44.5 69t-78.5 27t-78.5 -27t-44.5 -69h-170q-10 42 -44.5 69t-78.5 27t-78.5 -27t-44.5 -69h-37q-13 0 -22.5 9.5t-9.5 22.5v96h416q40 0 68 28t28 68v224h128q17 0 27 -14l128 -192q5 -8 5 -18v-192zM219 513h256h-256zM128 417
h427h-427z" />
    <glyph glyph-name="uniE61D" unicode="&#xe61d;" horiz-adv-x="1176" 
d="M981 896h-371q-65 0 -112 -46.5t-47 -110.5v-304h-212q-17 0 -28.5 -11.5t-11.5 -28t11.5 -28t28.5 -11.5h212v-302h-42q-13 45 -51.5 74t-87.5 29t-87.5 -29t-51.5 -74h-52v340q0 103 47.5 164.5t125.5 61.5h87q16 0 27.5 11.5t11.5 28t-11.5 28t-27.5 11.5h-87
q-112 0 -183 -86q-69 -84 -69 -219v-381q0 -15 12.5 -26t28.5 -11h90q13 -45 51.5 -74.5t87.5 -29.5t87.5 29.5t51.5 74.5h312q13 -45 51.5 -74.5t87.5 -29.5t87.5 29.5t51.5 74.5h100q17 0 28.5 10.5t11.5 26.5v726q0 64 -46.5 110.5t-111.5 46.5zM270 -51q-27 0 -46.5 19
t-19.5 45.5t19.5 45.5t46.5 19t46.5 -19t19.5 -45.5t-19.5 -45.5t-46.5 -19zM860 -51q-27 0 -46.5 19t-19.5 45.5t19.5 45.5t46.5 19t46.5 -19t19.5 -45.5t-19.5 -45.5t-46.5 -19zM1059 54h-60q-13 45 -51.5 74t-87.5 29t-87.5 -29t-51.5 -74h-191v685q0 32 23.5 55.5
t56.5 23.5h371q32 0 55 -23.5t23 -55.5v-685z" />
    <glyph glyph-name="uniE61E" unicode="&#xe61e;" horiz-adv-x="1138" 
d="M658 392q9 -9 22 -9t22 9.5t9 22.5q0 17 -14 27q-11 8 -25 15q58 50 58 127q0 69 -47.5 117.5t-115 48.5t-115 -48.5t-47.5 -117.5q0 -38 15.5 -72t42.5 -57q-57 -28 -92 -79.5t-40 -120.5v0v1q0 -13 9 -22t22 -9t22.5 8.5t9.5 21.5h-1h1q7 71 56 116t118 45q50 0 90 -25
v1v0zM468 584q0 43 29 73t70.5 30t71 -30t29.5 -72.5t-29.5 -72.5t-71 -30t-70.5 30t-29 72v0zM743 258q0 13 9 22.5t22 9.5t22 -9.5t9 -22.5h-62zM97 896q-40 0 -68.5 -29.5t-28.5 -71.5v-622q0 -41 31.5 -72t71.5 -31h620l29 84l-671 -4v665h975v-665l-353 4l20 -84h310
q40 0 71.5 31t31.5 72v622q0 42 -28.5 71.5t-68.5 29.5h-942zM516 70h104v-104h-104v104v0zM878 -34v-80h-620v80h620zM660 319l-42 42q-10 10 -24.5 10t-24.5 -10t-10 -24.5t10 -24.5l65 -64q13 -13 30 -9q13 0 23 10l177 177q10 10 10 24t-10.5 24t-24.5 10t-24 -10z" />
    <glyph glyph-name="uniE61F" unicode="&#xe61f;" 
d="M558 -86q-3 -28 -25.5 -38t-44 1.5t-23.5 36.5v642l-283 -274q-16 -14 -34 -12.5t-28 14t-13 29t10 32.5q129 125 357 345q16 17 37.5 17.5t37.5 -17.5q354 -342 358 -347q12 -14 10 -31t-13 -27.5t-26.5 -14.5t-32.5 9q-5 4 -76.5 73.5t-140.5 136.5l-70 67v-642z
M116 893h787v-90h-787v90z" />
    <glyph glyph-name="uniE620" unicode="&#xe620;" 
d="M896 828h-769q-27 0 -45 -18.5t-18 -44.5t18 -44.5t45 -18.5h769q26 0 44.5 18.5t18.5 44.5t-18.5 44.5t-44.5 18.5zM558 637q-3 2 -5 4q0 1 -1 1l-1 1q-2 2 -2.5 2t-2.5 1l-3 2q-1 0 -3 1.5t-2.5 1.5t-3 1t-3.5 1l-3 1h-2.5t-3.5 1h-1h-2q-3 1 -6 1v0h-1q-26 0 -45 -19
l-318 -318q-19 -19 -19 -45t18.5 -44.5t44.5 -18.5t45 19l212 213v-440q0 -26 18.5 -44.5t44.5 -18.5t44.5 18.5t18.5 44.5v438l211 -211q18 -19 44 -19t44.5 18.5t18.5 44.5t-18 45z" />
    <glyph glyph-name="uniE621" unicode="&#xe621;" 
d="M769 -47v42h-515v-42q-13 0 -32 7t-35 14t-41.5 5t-52.5 -18q-23 -12 -58 -13v-94q33 3 61 18q52 29 109 0q68 -34 128 -3q58 30 113 3q35 -18 65.5 -18t66.5 18q55 27 113 -3q60 -32 128 3q56 29 109 0q29 -15 61 -18v95q-10 0 -19.5 1.5t-16 3.5t-12 4t-7.5 3l-3 1
q-28 16 -53.5 17.5t-41 -5t-34.5 -14t-33 -7.5zM819 338l-12 5q-9 4 -9 14v99v10v11v52q0 4 -3 7t-7 3h-73q-4 0 -7 3t-3 7v59q0 4 -3 7t-7 3h-135q-4 0 -7 3t-3 8v85q0 4 -3 7t-8 3h-15h-18h-18h-16q-4 0 -7 -3t-3 -7v-85q0 -5 -3 -8t-7 -3h-135q-4 0 -7 -3t-3 -7v-59
q0 -4 -3 -7t-7 -3h-73q-4 0 -7 -3t-3 -7v-106q0 -10 0.5 -10t0.5 -10v-47q0 -10 -10 -14l-9 -3l-10 -5q-1 0 -10 -5q-15 -8 -22 -34q-2 -7 -0.5 -17.5t3.5 -20.5l2 -10q3 -10 7 -19l53 -122q4 -9 4 -20v-125q0 -4 3 -7t7 -3h31q4 0 7 3t3 7v136q0 10 -4 20l-58 133
q-4 10 -4.5 10.5t-3.5 9.5q-1 1 -1 2t-0.5 4.5t0.5 5.5l2 3q4 3 13 7l279 115q9 4 18 0q252 -103 284 -116q9 -4 10 -10l1 -3q-1 -6 -5 -15l-63 -146q-4 -10 -4 -20v-136q0 -4 3 -7t7 -3h31q4 0 7 3t3 7v125q0 11 4 20l60 139q3 8 4 9q0 1 0.5 1.5t0.5 10.5q0 56 -39 72z
M511 464q-5 2 -15 -1l-221 -92q-4 -2 -6.5 0t-2.5 6v79q0 10 -0.5 10t-0.5 11v1q0 4 3 7t7 3h73q4 0 7 3t3 7v59q0 4 3 7t7 3h120h18h18h119q5 0 8 -3t3 -7v-59q0 -4 3 -7t7 -3h72q5 0 8 -3t3 -7v-55v-10v-10v-25q0 -4 -3 -6t-7 -1l-212 88q-2 1 -7.5 3t-6.5 2z" />
    <glyph glyph-name="uniE622" unicode="&#xe622;" 
d="M929 33l-168 168l-1 1q86 106 86 243q0 105 -51.5 193.5t-140 140t-193 51.5t-193 -51.5t-140 -140t-51.5 -193t51.5 -193t140 -140t193.5 -51.5q119 0 216 67q3 -3 5 -6l167 -167q16 -16 39 -16t39.5 16t16.5 39t-16 39zM462 170q-114 0 -194.5 80.5t-80.5 194.5
t80.5 194.5t194.5 80.5t194.5 -80.5t80.5 -194.5t-80.5 -194.5t-194.5 -80.5z" />
    <glyph glyph-name="uniE623" unicode="&#xe623;" horiz-adv-x="1025" 
d="M787 472q4 -94 -38.5 -176.5t-120.5 -132.5t-172.5 -54.5t-176.5 38.5t-132.5 121t-54.5 172.5t39 176.5t121 132t172 54.5t176 -38.5t132.5 -121t54.5 -172zM736 781q-65 59 -146.5 88.5t-169.5 25.5t-167 -40.5t-138 -101.5t-88.5 -147t-26 -170t40.5 -166.5t102 -138
t147 -89t170 -25.5q145 7 257 98l228 -226q14 -15 34 -14q18 1 31 14t13 32t-13 32l-228 227q104 129 97 296q-4 88 -41 167t-102 138z" />
    <glyph glyph-name="uniE624" unicode="&#xe624;" 
d="M659 -128q58 0 105 27q44 25 81 82q2 3 6 11q25 46 -1 110.5t-94 117.5q-77 61 -149 61q-53 0 -79 -35q-8 -6 -14 -6q-4 0 -9 5q0 1 -1 1q-38 50 -70 106q-29 52 -51 105q-2 14 1 19q2 1 4 1q38 1 65 33q25 29 35 77.5t3 105.5q-11 87 -53.5 145t-94.5 58h-1h-1
q-5 0 -10 -1q-64 3 -116 -26q-78 -45 -106.5 -146t-2.5 -233.5t102 -266.5q89 -158 213.5 -254.5t237.5 -96.5v0zM607 223q52 0 114 -49q48 -38 71 -83.5t11 -68.5q-2 -3 -5 -9q-25 -43 -63 -64q-33 -19 -76 -19q-97 0 -209 89.5t-192 231.5q-66 116 -91 234.5t-5 208
t82 125.5q38 21 87 18q4 0 7 1h4q27 0 55.5 -44.5t36.5 -108.5q5 -43 -1.5 -80.5t-23.5 -57.5q-10 -12 -22 -12q-29 0 -48 -23q-20 -26 -12 -69q1 -2 2 -5q23 -58 55 -114q35 -62 77 -116l4 -4q21 -21 49 -21q30 0 54 21q4 2 6 6q8 13 33 13zM697 417q11 0 19 7t10 17
q8 41 -16 75.5t-65 42.5q-12 2 -22 -5t-12 -19t5 -21.5t18 -11.5q18 -4 28 -18.5t7 -31.5q-2 -12 4.5 -22t18.5 -12q3 -1 5 -1zM796 419q10 0 18 7t10 17q13 72 -28.5 133t-113.5 74q-12 2 -22 -5t-12 -18.5t4.5 -21.5t18.5 -12q49 -9 77 -50t19 -89q-2 -12 5 -22t18 -12
q3 -1 6 -1zM908 388q11 0 19 6.5t10 16.5q22 125 -49.5 228.5t-195.5 126.5q-12 2 -22 -4.5t-12 -18.5t5 -22t18 -12q101 -18 159 -102.5t40 -184.5q-3 -12 4 -22t19 -12h5z" />
    <glyph glyph-name="uniE625" unicode="&#xe625;" 
d="M254 -64q-29 0 -56.5 11.5t-37.5 19.5t-17 14q-60 61 -74.5 143t12.5 167t78.5 167.5t123.5 153.5q90 91 207 155.5t227 64.5q117 0 195 -79q23 -23 39 -62.5t6 -82.5q-5 -23 -25.5 -55.5t-50 -64.5t-71 -54.5t-81.5 -22.5q-57 0 -102 45q-46 45 -50 82q-60 -17 -131 -89
q-73 -73 -91 -133q34 -7 79 -52q62 -61 39 -143q-18 -61 -79 -116t-109 -66q-16 -3 -31 -3zM717 756q-85 0 -187 -53t-193 -144q-85 -85 -137.5 -181t-59 -188t56.5 -155q7 -7 23 -15t34 -8q7 0 14 1q28 6 74 46.5t58 82.5q11 39 -19 69q-30 29 -41 31h-1q-5 -1 -9 -1
q-19 0 -33 13q-19 17 -20 47q-1 38 30.5 93t84.5 109q52 52 106 83t94 31q31 0 49 -21q17 -18 11 -45v-3q2 -12 29 -39q22 -22 48 -22q46 0 96.5 52.5t57.5 84.5q4 18 -3 37.5t-12.5 27t-8.5 10.5q-57 57 -142 57z" />
    <glyph glyph-name="uniE626" unicode="&#xe626;" 
d="M512 160l417 448h-834z" />
    <glyph glyph-name="uniE627" unicode="&#xe627;" 
d="M930 421l-73 74q-21 22 -57 37.5t-67 15.5h-49q-19 0 -36 -8v35q0 63 -43.5 107.5t-105.5 44.5h-333q-33 0 -53 -35q-16 -29 -16 -67v-108q0 -11 7.5 -18.5t18 -7.5t18 7.5t7.5 18.5v108q0 14 4 26.5t8 18t6 5.5h333q40 0 68.5 -29.5t28.5 -70.5v-117v-98v-1v-160h-225
h-2q-10 0 -18 -7.5t-8 -18.5q0 -23 -15 -38.5t-37 -15.5q-23 0 -38.5 15.5t-15.5 38.5v0q0 11 -8 18.5t-18 7.5h-44q-12 0 -19 5v41q0 11 -7.5 18.5t-18 7.5t-18 -7.5t-7.5 -18.5v-45q0 -25 25 -41q19 -12 45 -12h21q7 -29 28 -50q31 -30 75 -30q37 0 65 22.5t36 57.5h230
q10 0 17.5 7t8.5 16v3v161h273q8 -22 8 -40v-58q0 -27 -10 -37h-32h-1h-1h-1h-1h-1v-1h-1h-1h-1l-1 -1h-1h-1q-4 -2 -8 -6v-1q-1 0 -1 -1q-1 0 -1 -1l-1 -1v-1h-1v-1v-1l-1 -1v-1q0 -1 -1 -1v-1v-1v-1v-1l-1 -1v-1v-1v0q0 -23 -16 -39t-38 -16t-38 16t-16 39
q-1 10 -8.5 17.5t-17.5 7.5h-1q-11 0 -18 -8t-7 -19q1 -43 32 -74q30 -31 73.5 -31t74.5 31q21 21 29 49h11q26 0 43 25.5t17 63.5v58q0 31 -14.5 68t-36.5 59zM648 458q0 16 10.5 27t25.5 11h49q21 0 47 -11t40 -26l71 -73h-243v72zM128 385zM80 384.5q0 19.5 14 33.5
t33.5 14t33.5 -14t14 -33.5t-14 -33.5t-33.5 -14t-33.5 14t-14 33.5z" />
    <glyph glyph-name="uniE628" unicode="&#xe628;" 
d="M588 383l-10 3h-27q80 14 133 76t53 144q0 93 -66 159t-158 66q-80 0 -141 -50t-78 -125h-90q-5 0 -8.5 -4t-3.5 -8v-40q0 -5 3.5 -8.5t8.5 -3.5h85q5 -77 56.5 -134.5t126.5 -71.5h-26l-12 -3q-61 -17 -117 -71t-90.5 -126.5t-34.5 -141.5q0 -50 30.5 -80t70.5 -30h436
q40 0 72 30t32 81q0 64 -36 137t-93.5 129t-115.5 72zM390 504q-18 21 -27 47q-8 19 -10 40h319q-2 -21 -10 -41q-9 -26 -27 -47q-38 -44 -95 -54q-13 -2 -24 -10h-3h-5q-11 8 -25 10q-56 11 -93 55zM457 383q27 -8 56 -8q25 0 49 6l25 -7q-8 -8 -38.5 -30.5t-36.5 -27.5
q-6 6 -38 28.5t-40 30.5zM729 -2h-436q-14 0 -24 10q-13 13 -13 36q0 40 16.5 85.5t46.5 86.5q29 41 64 69q17 13 33 22q8 -6 24 -17q25 -17 29 -21q18 -17 43 -17q26 0 45 18q4 3 27 20q14 11 21 16q16 -9 31 -21q36 -29 67 -71.5t48 -88.5q18 -44 18 -80q0 -25 -13 -36
t-27 -11z" />
    <glyph glyph-name="uniE629" unicode="&#xe629;" horiz-adv-x="1257" 
d="M1217 318q-30 -20 -89 -20h-185l-244 -289q-5 -5 -12 -5h-88q-9 0 -13.5 7.5t-0.5 14.5l122 272h-118l-58 -34q-4 -5 -11 -5h-73q-8 0 -12 7q-3 4 -3 9q0 3 1 5l18 97q5 2 8 54q1 5 -1 10v1l-25 72q-3 8 1.5 14.5t12.5 6.5h73q6 0 11 -5l38 -36h138l-122 272
q-4 8 0.5 15.5t13.5 7.5h88q7 0 12 -6l244 -289l185 1q59 0 90 -20q39 -26 39 -79q0 -52 -40 -78zM1178 436h-39h-196q-4 0 -21 8t-19 11l-235 295h-20l118 -256q5 -10 0 -19q-3 -5 -19.5 -22t-20.5 -17h-137h-20q-2 0 -5 2.5t-5.5 5.5t-5 6.5t-3.5 4.5l-20 20h-39l16 -22
q12 -32 4 -74v-1v-1l-20 -59h39l20 19q0 1 5 7t8.5 9.5t6.5 3.5h19h138q3 0 19 -16.5t20 -22.5q5 -9 0 -20l-118 -255h20l235 294q2 3 19 11.5t21 8.5h196q7 0 17.5 -0.5t15.5 -0.5t6 1q20 20 20 39.5t-20 39.5zM589 298zM452 377zM569 494zM118 494v40h275v-40h-275zM0 377
v39h393v-39h-393zM216 259v39h177v-39h-177z" />
    <glyph glyph-name="uniE62A" unicode="&#xe62a;" horiz-adv-x="1299" 
d="M405 740l-4 4h-113q-12 5 -12 18q0 9 5.5 14.5t14.5 5.5l109 -3q8 0 13.5 -6t5.5 -14t-5.5 -13.5t-13.5 -5.5zM286 744h2q4 -2 7 -2zM563 498h-93q-8 0 -14 5.5t-6 14t6 14t14 5.5h93q8 0 13.5 -5.5t5.5 -14t-5.5 -14t-13.5 -5.5zM649 423h-179q-8 0 -14 6t-6 14t6 13.5
t14 5.5h179q8 0 14 -5.5t6 -13.5t-6 -14t-14 -6zM718 498h-90q-8 0 -14 5.5t-6 14t6 14t14 5.5h90q8 0 13.5 -5.5t5.5 -14t-5.5 -14t-13.5 -5.5zM889 498h-104q-8 0 -14 5.5t-6 14t6 14t14 5.5h104q8 0 13.5 -5.5t5.5 -14t-5.5 -14t-13.5 -5.5zM889 423h-175q-8 0 -13.5 6
t-5.5 14t5.5 13.5t13.5 5.5h175q8 0 14 -5.5t6 -13.5t-6 -14t-14 -6zM1292 132q6 -5 6.5 -13.5t-4.5 -14.5q-6 -7 -15 -7q-7 0 -13 5q-40 35 -93 35q-48 0 -88 -31q-51 -45 -119 -45q-61 0 -110 38l-6 3q-40 35 -93 35t-93 -35h-2v-1q-51 -41 -115 -41q-67 0 -119 44v1
q-40 34 -92 34q-53 0 -94 -35l-2 -1q-50 -42 -114 -42q-68 0 -119 45q-6 5 -7 13.5t4.5 14.5t13.5 6.5t14 -4.5q38 -32 87 -35l-46 275q-11 36 3 62q5 9 11.5 13.5t11 5.5t9.5 1l6 1h6h8h6h57v190q0 3 7.5 7t8.5 5q28 45 79 45h287q26 0 49 -17t29 -42v-5l4 -41
q1 -12 -7 -21.5t-20 -10.5t-21.5 7t-10.5 20l-3 38q-2 6 -8.5 11.5t-11.5 5.5h-283q-8 0 -22 -7t-20 -15v-171h76h8q22 -1 31.5 -1.5t22 -3.5t17 -6.5t10.5 -11.5t9.5 -18t7.5 -27q1 -6 3 -11.5t9 -11.5t16 -4h439q8 0 14 2t10.5 5t8.5 7.5t6 8.5t4 9t3 8t1 6l1 3l2 4
q24 49 103 42h96q26 3 39.5 1.5t21.5 -9.5q27 -28 23 -72q-1 -7 -5 -13l-137 -210q40 21 85 21q67 1 119 -44zM176 111q23 9 42 25h2v1q51 42 115 42q68 0 119 -45q40 -34 93 -34q52 0 93 34q0 1 1 1t1 1q50 41 115 41q61 0 110 -38l6 -3q40 -35 93 -35q11 0 23 2q0 8 4 14
l62 95h-896zM1171 391q-1 12 -6 18q-13 13 -19 12h-96q-32 2 -49 -29q-10 -27 -34.5 -46.5t-69.5 -19.5h-439q-70 -13 -86 50q-7 29 -9 32q-4 3 -18 8t-21 5h-191l-3 -8q-6 -5 -1 -20q1 -2 2 -5l22 -137h927zM458 364z" />
    <glyph glyph-name="uniE62B" unicode="&#xe62b;" 
d="M966 695l-450 124h-1v0h-2h-1h-1h-1h-1h-1h-2l-448 -124v0h-1l-1 -1v0h-1h-1v0v-1h-1l-1 -1v0h-1v-1h-1v-1h-1v-1q-1 0 -1 -1v0l-1 -1v-1v-1h-1v-1v-1h-1v-1v0v-1v-1v0v-2v0v-1v-558q0 -13 12 -17l479 -152v-1h1h1h2h1h2h1h1h1v1h1h1l419 152q12 4 12 17v559q0 13 -13 17
zM717 617l-411 109l49 14l434 -117v-209l-59 -23v208q0 14 -13 18zM81 654l442 -128v-534l-442 140v522zM943 131l-383 -138v546q0 14 -14 17l-416 121l107 30l457 -122v-220q0 -10 8 -15t17 -2l95 37q11 4 11 17v235q0 14 -13 17l-388 105l87 23l432 -118v-533z" />
  </font>
</defs>
</svg>
