<?xml version="1.0" encoding="UTF-8" standalone="no"?>
<svg width="54px" height="60px" viewBox="0 0 54 60" version="1.1" xmlns="http://www.w3.org/2000/svg" xmlns:xlink="http://www.w3.org/1999/xlink">
    <!-- Generator: Sketch 3.8.3 (29802) - http://www.bohemiancoding.com/sketch -->
    <title>Group</title>
    <desc>Created with Sketch.</desc>
    <defs></defs>
    <g id="Page-1" stroke="none" stroke-width="1" fill="none" fill-rule="evenodd">
        <g id="口岸服务" transform="translate(-263.000000, -2375.000000)" fill="#FE3F80">
            <g id="Group" transform="translate(263.000000, 2375.000000)">
                <path d="M19.8694843,3.66712185 L24.9095461,3.66712185 L24.9095461,6.22113023 L21.1598745,6.22113023 C20.1574897,6.22113023 19.3451053,7.03351468 19.3451053,8.03562627 C19.3451053,9.03801103 20.1574897,9.85039548 21.1598745,9.85039548 L32.2903271,9.85039548 C33.2924387,9.85039548 34.1051646,9.03801103 34.1051646,8.03562627 C34.1051646,7.03351468 33.2924387,6.22113023 32.2903271,6.22113023 L28.5388115,6.22113023 L28.5388115,3.66712185 L33.6342617,3.66712185 C34.6366464,3.66712185 35.4490992,2.85439588 35.4490992,1.85228429 C35.4490992,0.849899533 34.6366464,0.0374467408 33.6342617,0.0374467408 L19.8694843,0.0374468076 C18.8670312,0.0374468076 18.0546467,0.8498996 18.0546467,1.85228436 C18.0546467,2.85439588 18.8670312,3.66712185 19.8694843,3.66712185 L19.8694843,3.66712185 L19.8694843,3.66712185 L19.8694843,3.66712185 Z M11.6464734,22.0162199 C11.6464734,23.0182632 12.4592676,23.830716 13.4613109,23.830716 L39.862884,23.830716 C40.8649956,23.830716 41.6773801,23.0182632 41.6773801,22.0162199 C41.6773801,21.0137669 40.8649956,20.2013824 39.862884,20.2013824 L13.4613109,20.2013824 C12.4592676,20.2013824 11.6464734,21.0137668 11.6464734,22.0162199 L11.6464734,22.0162199 L11.6464734,22.0162199 L11.6464734,22.0162199 Z M39.8625425,30.0413764 L13.4612426,30.0413764 C12.4591993,30.0413764 11.6464051,30.8537609 11.6464051,31.856214 C11.6464051,32.8583256 12.4591993,33.67071 13.4612426,33.67071 L39.8628157,33.67071 C40.8649273,33.67071 41.6773117,32.8583256 41.6773117,31.856214 C41.6773801,30.8537609 40.8649956,30.0413764 39.8625425,30.0413764 L39.8625425,30.0413764 L39.8625425,30.0413764 L39.8625425,30.0413764 Z M39.8625425,39.881029 L13.4612426,39.881029 C12.4591993,39.881029 11.6464051,40.6934134 11.6464051,41.6958665 C11.6464051,42.6979781 12.4591993,43.5107041 13.4612426,43.5107041 L39.8628157,43.5107041 C40.8649273,43.5107041 41.6773117,42.6979781 41.6773117,41.6958665 C41.6773801,40.6934134 40.8649956,39.881029 39.8625425,39.881029 L39.8625425,39.881029 L39.8625425,39.881029 L39.8625425,39.881029 Z M53.2839944,12.2681527 C53.2135809,11.2279318 52.9604066,10.2571 52.5399745,9.37307266 C51.702457,7.48850463 50.3601616,6.39351003 49.1996709,5.76682325 C47.4239672,4.80807984 45.7384828,4.76443849 45.5523754,4.76245789 L45.5422676,4.76245789 L42.3294049,4.74914009 L42.3216191,4.74914009 C41.3227857,4.74914009 40.5112891,5.55667548 40.507123,6.55646503 C40.5028887,7.55857662 41.3119949,8.37458076 42.314448,8.37881513 L45.5064121,8.39213293 C45.5957437,8.39602578 46.5955331,8.45278004 47.5770876,9.01752214 C48.7879809,9.71393947 49.4724465,10.8783231 49.6656567,12.5689296 C49.6793159,12.7537394 49.6868285,51.5296456 49.6868285,51.5296456 C49.6868285,54.1604873 47.6549453,56.3011665 45.158101,56.3011665 L28.8924497,56.3011664 L28.8924497,56.3351096 L8.16609404,56.3351097 C5.6684984,56.3351097 3.63702501,54.1944306 3.63702501,51.5631791 C3.63702501,51.5631791 3.64446928,12.7873412 3.65812859,12.6028729 C3.85140714,10.9115151 4.53573604,9.74747299 5.74676596,9.05105566 C6.72859355,8.48638185 7.72838303,8.42962765 7.8173731,8.42566645 L11.009747,8.41234865 C12.0117903,8.40811428 12.8208965,7.59245159 12.8167304,6.59034 C12.8128376,5.59055052 12.0009994,4.78301506 11.0022344,4.78301506 L10.9943803,4.78301506 L7.78185904,4.79633286 C7.77823935,4.79667437 7.77502939,4.79667437 7.7714097,4.79667437 C7.58537059,4.79831346 5.9001594,4.84195482 4.12445566,5.80069822 C2.42210216,6.71969319 0.326703404,8.64469268 0.0118575083,12.5965897 C0.00441323693,12.6950046 0.00468640712,12.792122 0.0121990211,12.8876685 C0.00926229143,12.9769317 0.00769147942,13.066195 0.00769147942,13.1561413 L0.00769147942,51.563179 C0.00769147942,56.1956486 3.6676218,59.9644432 8.16609404,59.9644432 L45.1581692,59.9308414 C49.6566414,59.9308414 53.3178694,56.1959901 53.3178694,51.563179 C53.3178694,51.563179 53.3175279,50.3681987 53.31664,48.3986018 C53.31664,48.3982603 53.2941023,12.3652701 53.2839944,12.2681527 L53.2839944,12.2681527 L53.2839944,12.2681527 L53.2839944,12.2681527 Z" id="Shape"></path>
            </g>
        </g>
    </g>
</svg>