<?xml version="1.0" encoding="UTF-8" standalone="no"?>
<svg width="60px" height="60px" viewBox="0 0 60 60" version="1.1" xmlns="http://www.w3.org/2000/svg" xmlns:xlink="http://www.w3.org/1999/xlink">
    <!-- Generator: Sketch 3.8.3 (29802) - http://www.bohemiancoding.com/sketch -->
    <title>Group</title>
    <desc>Created with Sketch.</desc>
    <defs></defs>
    <g id="Page-1" stroke="none" stroke-width="1" fill="none" fill-rule="evenodd">
        <g id="首页" transform="translate(-622.000000, -2988.000000)" fill="#FE3F80">
            <g id="Group" transform="translate(622.000000, 2988.000000)">
                <path d="M24.7430606,37.7595129 L35.016666,37.7595129 L31.861813,44.3346203 L27.8636683,44.3346203 L24.7430606,37.7595129 L24.7430606,37.7595129 Z M59.6519156,59.9333779 L35.0252274,59.9333779 L24.6446052,59.9333779 L0.01791699,59.9333779 C-0.144748428,50.4260122 4.27718254,40.4563344 17.200522,33.5558961 C14.5935946,30.7863033 11.3873736,25.9191827 11.3873736,18.7405009 C11.3873736,8.41124682 19.721836,0.00401311037 29.9740381,0.00401311037 C40.2176788,0.00401311037 48.5564218,8.41124682 48.5564218,18.7405009 C48.5564218,26.0005154 45.2774294,30.8890393 42.5977307,33.6757548 C54.9603024,40.0239868 59.8103003,50.2719082 59.6519156,59.9333779 L59.6519156,59.9333779 Z M55.6965775,56.1877926 C54.9003731,50.4131703 51.6513454,42.5324588 40.8897437,37.0061153 L36.4121641,34.7031154 L39.9137512,31.0688275 C42.1525411,28.7358629 44.8279591,24.7120342 44.8279591,18.740501 C44.8279591,10.4745294 38.1629577,3.75387913 29.974038,3.75387913 C21.7808377,3.75387913 15.1158362,10.47881 15.1158362,18.740501 C15.1158362,24.6521047 17.7227635,28.6588109 19.9059047,30.9832141 L23.2705104,34.5575726 L18.9470348,36.8605725 C8.36522127,42.5067748 4.80798542,49.9679807 3.96041298,56.1877926 L25.4322482,56.1877926 L27.0589024,48.4355013 L32.61093,48.4355013 L34.2375841,56.1877926 L55.6965775,56.1877926 L55.6965775,56.1877926 Z" id="Shape"></path>
            </g>
        </g>
    </g>
</svg>