<?xml version="1.0" encoding="UTF-8" standalone="no"?>
<svg width="60px" height="60px" viewBox="0 0 60 60" version="1.1" xmlns="http://www.w3.org/2000/svg" xmlns:xlink="http://www.w3.org/1999/xlink">
    <!-- Generator: Sketch 3.8.3 (29802) - http://www.bohemiancoding.com/sketch -->
    <title>Group</title>
    <desc>Created with Sketch.</desc>
    <defs></defs>
    <g id="Page-1" stroke="none" stroke-width="1" fill="none" fill-rule="evenodd">
        <g id="首页" transform="translate(-262.000000, -2995.000000)" fill="#FE3F80">
            <g id="Group" transform="translate(262.000000, 2995.000000)">
                <path d="M11.2499712,14.9999619 L44.9998832,14.9999619 L44.9998832,11.2499711 L11.2499712,11.2499711 L11.2499712,14.9999619 L11.2499712,14.9999619 Z M11.2499712,22.4999422 L44.9998832,22.4999422 L44.9998832,18.7499528 L11.2499712,18.7499528 L11.2499712,22.4999422 L11.2499712,22.4999422 Z M11.2499712,30.0017539 L26.2499331,30.0017539 L26.2499331,26.2499331 L11.2499712,26.2499331 L11.2499712,30.0017539 L11.2499712,30.0017539 Z M53.8255479,38.8255846 L51.1741843,36.1742238 L41.2498965,46.0985173 L35.0755938,39.9242146 L32.424233,42.5755754 L41.2498965,51.4012389 L53.8255479,38.8255846 L53.8255479,38.8255846 Z M52.4998661,0 L52.4998661,22.4999422 L48.7498753,22.4999422 L48.7498753,3.74999051 L3.74999051,3.74999051 L3.74999051,47.2117958 L13.4765284,37.4999053 L18.7499525,37.4999053 L0,56.249857 L0,0 L52.4998661,0 L52.4998661,0 Z M33.8451304,33.8451304 C31.3658863,36.3207087 29.9999238,39.6165988 29.9999238,43.1248918 C29.9999238,46.6258591 31.3658862,49.9217492 33.8451304,52.4046533 C36.3243716,54.8802316 39.6202616,56.249857 43.1248918,56.249857 C46.6295221,56.249857 49.9254093,54.8802316 52.4046533,52.4046533 C54.8838918,49.9217491 56.249857,46.6258591 56.249857,43.1248918 C56.249857,39.6165987 54.8838917,36.3207087 52.4046533,33.8451304 C49.9254093,31.3640563 46.6295192,30.0017539 43.1248918,30.0017539 C39.6202645,30.0017539 36.3243715,31.3640563 33.8451304,33.8451304 L33.8451304,33.8451304 Z M59.9998478,43.1248918 C59.9998478,52.4412711 52.4449368,59.9998478 43.1248918,59.9998478 C33.8048469,59.9998478 26.2499331,52.4412711 26.2499331,43.1248918 C26.2499331,33.801184 33.8048469,26.2499331 43.1248918,26.2499331 C52.4449368,26.2499331 59.9998478,33.8011841 59.9998478,43.1248918 Z" id="Shape"></path>
            </g>
        </g>
    </g>
</svg>