<?xml version="1.0" encoding="UTF-8" standalone="no"?>
<svg width="60px" height="54px" viewBox="0 0 60 54" version="1.1" xmlns="http://www.w3.org/2000/svg" xmlns:xlink="http://www.w3.org/1999/xlink">
    <!-- Generator: Sketch 3.8.3 (29802) - http://www.bohemiancoding.com/sketch -->
    <title>Group 10</title>
    <desc>Created with Sketch.</desc>
    <defs></defs>
    <g id="Page-1" stroke="none" stroke-width="1" fill="none" fill-rule="evenodd">
        <g id="首页" transform="translate(-441.000000, -2995.000000)" fill="#FE3F80">
            <g id="Group-10" transform="translate(441.000000, 2995.000000)">
                <path d="M34.724694,26.5837094 C35.0173321,26.8616503 35.405433,27.0347883 35.8362517,27.0347883 C36.7485052,27.0347883 37.4853543,26.279396 37.4853543,25.3485307 C37.4853543,24.7578977 37.1875653,24.2421925 36.7407445,23.9402828 L36.7592877,23.9163141 C36.3364356,23.6344585 35.8949716,23.3831647 35.4403215,23.1531612 C37.3098813,21.5469139 38.5012432,19.1373368 38.5012432,16.4421268 C38.5012432,11.6005836 34.666386,7.67520852 29.9323244,7.67520852 C25.198606,7.67520852 21.3582546,11.6005836 21.3582546,16.4421268 C21.3582546,19.1332161 22.5497539,21.6346847 24.4164979,23.242443 C20.5498428,25.1904334 17.8078629,28.7791476 17.4541698,33.827069 L17.4568483,33.827069 C17.4568483,33.827069 17.4541698,33.7539953 17.4541698,33.7645031 C17.4541698,34.6950936 18.193354,35.4025485 19.1032723,35.4025485 C20.0125726,35.4025485 20.7517568,34.7178261 20.7517568,33.7869609 C20.7517568,33.7780327 20.7492844,33.8271377 20.7492844,33.8271377 L20.7571138,33.8271377 C21.2491936,28.7792162 25.1664646,25.3019668 29.9322557,25.3019668 C31.6873975,25.3019668 33.3232452,25.7661633 34.7196117,26.6371411 L34.724694,26.5837094 L34.724694,26.5837094 L34.724694,26.5837094 Z M24.6561164,16.4421268 C24.6561164,13.4623142 27.0174127,11.0473802 29.9322557,11.0473802 C32.8446264,11.0473802 35.2035875,13.4623142 35.2035875,16.4421268 C35.2035875,19.4207034 32.8446264,21.8365301 29.9322557,21.8365301 C27.0174127,21.8365301 24.6561164,19.4207034 24.6561164,16.4421268 L24.6561164,16.4421268 L24.6561164,16.4421268 L24.6561164,16.4421268 Z M39.160692,33.6384098 C39.160692,33.1966025 39.3388434,32.7590532 39.6446678,32.4466358 C39.947745,32.1342184 40.3784951,31.9521523 40.8095199,31.9521523 C41.240476,31.9521523 41.6711574,32.1342184 41.9742346,32.4466358 C42.2803337,32.7590533 42.4582791,33.1966026 42.4582791,33.6384098 L39.160692,33.6384098 L39.160692,33.6384098 Z M5.10897638,0 C2.28465128,0 0,2.37874047 0,5.31363765 L0,38.1261913 C0,41.0646597 2.62488342,43.5724466 5.44687349,43.5724466 L38.1261913,43.5724466 L39.657854,39.1530534 L4.24694215,39.3261913 L4.24694215,4.24653007 L55.6659188,4.24653007 L55.6659188,39.3261913 L37.0971847,39.1530534 L38.1262599,43.5724466 L54.4659187,43.5724466 C57.2875654,43.5724466 59.9125174,41.0646597 59.9125174,38.1261913 L59.9125176,5.31363765 C59.9124489,2.37874054 57.6253939,0 54.8034038,0 L5.10897638,0 Z M27.2330624,43.5724466 L32.6796611,43.5724466 L32.6796611,49.0193201 L27.2330624,49.0193201 L27.2330624,43.5724466 L27.2330624,43.5724466 L27.2330624,43.5724466 Z M46.2961581,49.0193201 L46.2961581,53.2655754 L13.6165656,53.2655754 L13.6165656,49.0193201 L46.2961581,49.0193201 Z" id="Shape"></path>
                <path d="M34.8003181,30.4540974 L32.577794,28.2315733 C31.8731031,27.5268824 30.7337315,27.5272078 30.0307878,28.2301515 C29.3229433,28.937996 29.3284807,30.0734288 30.0322096,30.7771577 L33.4234786,34.1684267 C33.8604143,34.6053624 34.4644622,34.7712559 35.0279737,34.6666788 C35.4560283,34.6440877 35.87714,34.4684444 36.2043985,34.1411859 L45.5411859,24.8043985 C46.2395213,24.1060631 46.2426407,22.9632468 45.539697,22.260303 C44.8318524,21.5524585 43.6977229,21.5566927 42.9956015,22.2588141 L34.8003181,30.4540974 Z" id="Combined-Shape"></path>
            </g>
        </g>
    </g>
</svg>