<?xml version="1.0" encoding="UTF-8" standalone="no"?>
<svg width="60px" height="60px" viewBox="0 0 60 60" version="1.1" xmlns="http://www.w3.org/2000/svg" xmlns:xlink="http://www.w3.org/1999/xlink">
    <!-- Generator: Sketch 3.8.3 (29802) - http://www.bohemiancoding.com/sketch -->
    <title>Group</title>
    <desc>Created with Sketch.</desc>
    <defs></defs>
    <g id="Page-1" stroke="none" stroke-width="1" fill="none" fill-rule="evenodd">
        <g id="口岸服务" transform="translate(-440.000000, -2376.000000)" fill="#FE3F80">
            <g id="Group" transform="translate(440.000000, 2376.000000)">
                <path d="M46.2123563,38.9129 L44.36278,40.7623174 L50.6374076,47.4340091 L30.3059682,47.4340091 L30.3059682,49.8168696 L50.6374076,49.8168696 L44.36278,56.4884024 L46.2123563,58.3378992 L53.6781759,50.8719208 L55.9248161,48.6254394 L54.0753192,46.9349587 L46.2123563,38.9129 Z M30.0134324,0.0672700129 C13.4754275,0.0672700129 0.0688189133,13.4740374 0.0688189133,30.0119629 C0.0688189133,46.5498884 13.4754275,59.9565764 30.0134324,59.9565764 C30.5293217,59.9565764 31.0423515,59.9435501 31.5518071,59.9176563 L31.5630859,54.3303251 L29.0436876,54.3303251 L29.0436876,56.313421 C25.3312704,53.3863152 20.8412464,48.5567336 18.687617,44.3021361 C21.3493516,43.4002234 25.1732072,42.4318289 28.4082581,42.2890956 L31.188262,42.2890956 L31.188262,42.2874276 L31.188262,40.3004397 L31.188262,34.5260539 L31.188262,30.7632789 L45.2116343,30.7632789 C45.1636594,31.738266 44.99257,33.575372 44.8607183,34.5260539 L47.2716966,34.5260539 C47.3919516,33.5741806 47.4752723,31.8165033 47.5187992,30.8427076 L57.5248275,30.8427076 C57.2769306,34.9818157 56.0878038,39.6609594 54.1694423,43.0817145 L56.9624724,43.0817145 C58.8814694,39.1322821 59.9582841,34.6979375 59.9582841,30.0118041 C59.9580458,13.4740375 46.551199,0.0672700129 30.0134324,0.0672700129 L30.0134324,0.0672700129 Z M25.986557,2.93631353 C22.8959076,5.82386391 18.4919048,10.3659137 16.5784678,14.1859567 C14.5883027,13.2194685 12.033082,11.884034 10.7615083,10.5548745 C14.2010085,7.30481162 21.2025675,4.00399389 25.986557,2.93631353 L25.986557,2.93631353 Z M8.96991485,12.5092967 C10.4779478,14.0452091 13.204814,15.3960527 15.4565377,16.4981257 C13.9377024,20.2137995 13.0264965,24.2421046 12.8463523,28.4599265 L2.49758918,28.4599264 C2.8454868,22.3756099 5.22620274,16.8365713 8.96991485,12.5092967 L8.96991485,12.5092967 Z M9.71281133,48.2484708 C6.01413532,43.9475665 2.86327886,36.870312 2.50219607,30.8427075 L12.8492912,30.8427075 C13.0352337,34.9984162 14.0899672,40.0018673 15.5770309,43.6698044 C13.316173,44.7810116 11.2198117,46.6994527 9.71281133,48.2484708 L9.71281133,48.2484708 Z M26.0663034,57.1672794 C21.2557052,56.0938802 14.7095108,53.4087141 11.2603203,50.1303747 C12.5291936,48.7869179 14.5329409,46.6443292 16.5329551,45.6673564 C18.4509196,49.5242544 22.9509516,54.2566153 26.0663034,57.1672794 L26.0663034,57.1672794 Z M28.8054016,40.3020283 C25.1671708,40.4554845 20.5622929,41.4447687 17.5526606,42.5172148 C16.224613,39.2288673 15.4184119,34.5617968 15.2355671,30.842787 L28.8053222,30.842787 L28.8054016,40.3020283 L28.8054016,40.3020283 L28.8054016,40.3020283 Z M28.8054016,28.4597676 L15.1524053,28.4597676 C15.329849,24.6769766 16.2325559,20.5071296 17.5931693,17.1695364 C20.5929523,18.2334836 25.1835331,19.2967954 28.8051633,19.4494573 L28.8051633,28.4597676 L28.8054016,28.4597676 L28.8054016,28.4597676 Z M28.8054016,17.0653259 C25.5902873,16.9235457 21.0692861,16.1200451 18.4194658,15.2279022 C20.5703946,11.0138135 25.1209432,6.53570367 28.8054016,3.63067909 L28.8054016,17.0653259 L28.8054016,17.0653259 L28.8054016,17.0653259 Z M49.1862456,10.5548745 C47.9732901,11.8226357 45.7511139,13.4274922 43.8802507,14.3679278 C41.9967583,10.6474883 37.4960114,5.31552023 34.4902712,2.48396709 C39.0942754,3.59557157 45.8546095,7.40695692 49.1862456,10.5548745 L49.1862456,10.5548745 Z M31.2676113,2.94330326 C35.0911493,5.86913821 39.5174714,10.9737019 41.738218,15.2877914 C39.0103193,16.2404591 34.5333216,16.9225926 31.188262,17.0669939 L31.2676113,2.94330326 L31.2676113,2.94330326 Z M31.1881826,28.4597676 L31.1881826,19.2921885 C34.9425381,19.1373026 39.6499584,18.5102925 42.7304411,17.3804989 C44.1175042,20.7478779 44.9564299,24.6366268 45.1357799,28.459847 L31.1881826,28.459847 L31.1881826,28.4597676 Z M47.5216587,28.4597676 C47.3390521,24.1886491 46.4076714,20.1114953 44.8539669,16.3568221 C46.9841648,15.2812783 49.6126982,13.980157 51.0570293,12.5092172 C54.8007414,16.8364919 57.1812985,22.3756099 57.5291961,28.4597676 L47.5216587,28.4597676 L47.5216587,28.4597676 L47.5216587,28.4597676 Z" id="Shape"></path>
            </g>
        </g>
    </g>
</svg>