<?xml version="1.0" encoding="UTF-8" standalone="no"?>
<svg width="58px" height="60px" viewBox="0 0 58 60" version="1.1" xmlns="http://www.w3.org/2000/svg" xmlns:xlink="http://www.w3.org/1999/xlink">
    <!-- Generator: Sketch 3.8.3 (29802) - http://www.bohemiancoding.com/sketch -->
    <title>Combined Shape</title>
    <desc>Created with Sketch.</desc>
    <defs></defs>
    <g id="Page-1" stroke="none" stroke-width="1" fill="none" fill-rule="evenodd">
        <g id="首页" transform="translate(-985.000000, -2988.000000)" fill="#FE3F80">
            <path d="M1006.52174,3016.04348 L999.680827,3016.04348 C998.776544,3016.04348 998.043478,3015.31979 998.043478,3014.41304 C998.043478,3013.51258 998.77497,3012.78261 999.680827,3012.78261 L1002.53444,3012.78261 L999.242963,3007.0816 C998.791217,3006.29915 999.05174,3005.30301 999.837002,3004.84964 C1000.61683,3004.3994 1001.61272,3004.66441 1002.06696,3005.45117 L1005.97452,3012.21926 C1006.0782,3012.39883 1006.14436,3012.58967 1006.17527,3012.78261 L1010.05915,3012.78261 C1010.09499,3012.62563 1010.1547,3012.47117 1010.23953,3012.32425 L1014.14709,3005.55615 C1014.60132,3004.76939 1015.59722,3004.50439 1016.37704,3004.95462 C1017.16231,3005.408 1017.42283,3006.40414 1016.97108,3007.18659 L1013.74022,3012.78261 L1016.62352,3012.78261 C1017.5278,3012.78261 1018.26087,3013.5063 1018.26087,3014.41304 C1018.26087,3015.31351 1017.52938,3016.04348 1016.62352,3016.04348 L1009.78261,3016.04348 L1009.78261,3020.6087 L1016.62352,3020.6087 C1017.5278,3020.6087 1018.26087,3021.33239 1018.26087,3022.23913 C1018.26087,3023.13959 1017.52938,3023.86957 1016.62352,3023.86957 L1009.78261,3023.86957 L1009.78261,3030.71336 C1009.78261,3031.61605 1009.05892,3032.34783 1008.15217,3032.34783 C1007.25171,3032.34783 1006.52174,3031.61655 1006.52174,3030.71336 L1006.52174,3023.86957 L999.680827,3023.86957 C998.776544,3023.86957 998.043478,3023.14587 998.043478,3022.23913 C998.043478,3021.33867 998.77497,3020.6087 999.680827,3020.6087 L1006.52174,3020.6087 L1006.52174,3016.04348 Z M1040.16589,3001.66368 C1034.66716,2993.20916 1025.27637,2988 1015,2988 C998.431458,2988 985,3001.43146 985,3018 C985,3034.56854 998.431458,3048 1015,3048 C1025.46433,3048 1035.00331,3042.59753 1040.45057,3033.89006 C1041.02365,3032.97399 1040.7456,3031.76679 1039.82953,3031.19372 C1038.91346,3030.62064 1037.70626,3030.89869 1037.13318,3031.81476 C1032.3939,3039.39053 1024.10156,3044.08696 1015,3044.08696 C1000.59257,3044.08696 988.913043,3032.40743 988.913043,3018 C988.913043,3003.59257 1000.59257,2991.91304 1015,2991.91304 C1023.93824,2991.91304 1032.1014,2996.44123 1036.88561,3003.79714 C1037.47474,3004.70297 1038.68665,3004.95969 1039.59248,3004.37055 C1040.4983,3003.78141 1040.75503,3002.56951 1040.16589,3001.66368 Z M1022.5,3022.23913 C1022.5,3021.33867 1023.23149,3020.6087 1024.13735,3020.6087 L1041.08004,3020.6087 C1041.98433,3020.6087 1042.71739,3021.33239 1042.71739,3022.23913 C1042.71739,3023.13959 1041.9859,3023.86957 1041.08004,3023.86957 L1024.13735,3023.86957 C1023.23307,3023.86957 1022.5,3023.14587 1022.5,3022.23913 Z M1022.5,3014.41304 C1022.5,3013.51258 1023.23149,3012.78261 1024.13735,3012.78261 L1041.08004,3012.78261 C1041.98433,3012.78261 1042.71739,3013.5063 1042.71739,3014.41304 C1042.71739,3015.31351 1041.9859,3016.04348 1041.08004,3016.04348 L1024.13735,3016.04348 C1023.23307,3016.04348 1022.5,3015.31979 1022.5,3014.41304 Z" id="Combined-Shape"></path>
        </g>
    </g>
</svg>