<?xml version="1.0" encoding="UTF-8" standalone="no"?>
<svg width="55px" height="60px" viewBox="0 0 55 60" version="1.1" xmlns="http://www.w3.org/2000/svg" xmlns:xlink="http://www.w3.org/1999/xlink">
    <!-- Generator: Sketch 3.8.3 (29802) - http://www.bohemiancoding.com/sketch -->
    <title>Group</title>
    <desc>Created with Sketch.</desc>
    <defs></defs>
    <g id="Page-1" stroke="none" stroke-width="1" fill="none" fill-rule="evenodd">
        <g id="口岸服务" transform="translate(-985.000000, -2375.000000)" fill="#FE3F80">
            <g id="Group" transform="translate(985.000000, 2375.000000)">
                <path d="M43.546875,60 L6.046875,60 C2.671875,60 0.046875,57.375 0.046875,54 L0.046875,6 C0.046875,2.625 2.671875,0 6.046875,0 L48.796875,0 C52.171875,0 54.796875,2.625 54.796875,6 L54.796875,49.5 C54.796875,50.625 54.046875,51.375 52.921875,51.375 C51.796875,51.375 51.046875,50.625 51.046875,49.5 L51.046875,6 C51.046875,4.875 49.921875,3.75 48.796875,3.75 L6.046875,3.75 C4.921875,3.75 3.796875,4.875 3.796875,6 L3.796875,54 C3.796875,55.125 4.921875,56.25 6.046875,56.25 L43.546875,56.25 C44.671875,56.25 45.421875,57 45.421875,58.125 C45.421875,59.25 44.671875,60 43.546875,60 L43.546875,60 Z M44.296875,19.875 L10.546875,19.875 C9.421875,19.875 8.671875,19.125 8.671875,18 L8.671875,10.5 C8.671875,9.375 9.421875,8.625 10.546875,8.625 L44.296875,8.625 C45.421875,8.625 46.171875,9.375 46.171875,10.5 L46.171875,18 C46.171875,19.125 45.421875,19.875 44.296875,19.875 L44.296875,19.875 Z M12.421875,16.125 L42.421875,16.125 L42.421875,12.375 L12.421875,12.375 L12.421875,16.125 L12.421875,16.125 Z M16.921875,30.75 L12.046875,30.75 C10.921875,30.75 10.171875,30 10.171875,28.875 L10.171875,25.875 C10.171875,24.75 10.921875,24 12.046875,24 L17.296875,24 C18.421875,24 19.171875,24.75 19.171875,25.875 L19.171875,28.875 C18.796875,30 18.046875,30.75 16.921875,30.75 L16.921875,30.75 Z M30.046875,30.75 L24.796875,30.75 C23.671875,30.75 22.921875,30 22.921875,28.875 L22.921875,25.875 C22.921875,24.75 23.671875,24 24.796875,24 L30.046875,24 C31.171875,24 31.921875,24.75 31.921875,25.875 L31.921875,28.875 C31.921875,30 31.171875,30.75 30.046875,30.75 L30.046875,30.75 Z M42.796875,30.75 L37.546875,30.75 C36.421875,30.75 35.671875,30 35.671875,28.875 L35.671875,25.875 C35.671875,24.75 36.421875,24 37.546875,24 L42.796875,24 C43.921875,24 44.671875,24.75 44.671875,25.875 L44.671875,28.875 C44.671875,30 43.921875,30.75 42.796875,30.75 L42.796875,30.75 Z M16.921875,40.875 L12.046875,40.875 C10.921875,40.875 10.171875,40.125 10.171875,39 L10.171875,36 C10.171875,34.875 10.921875,34.125 12.046875,34.125 L17.296875,34.125 C18.421875,34.125 19.171875,34.875 19.171875,36 L19.171875,39 C18.796875,40.125 18.046875,40.875 16.921875,40.875 L16.921875,40.875 Z M30.046875,40.875 L24.796875,40.875 C23.671875,40.875 22.921875,40.125 22.921875,39 L22.921875,36 C22.921875,34.875 23.671875,34.125 24.796875,34.125 L30.046875,34.125 C31.171875,34.125 31.921875,34.875 31.921875,36 L31.921875,39 C31.921875,40.125 31.171875,40.875 30.046875,40.875 L30.046875,40.875 Z M42.796875,40.875 L37.546875,40.875 C36.421875,40.875 35.671875,40.125 35.671875,39 L35.671875,36 C35.671875,34.875 36.421875,34.125 37.546875,34.125 L42.796875,34.125 C43.921875,34.125 44.671875,34.875 44.671875,36 L44.671875,39 C44.671875,40.125 43.921875,40.875 42.796875,40.875 L42.796875,40.875 Z M16.921875,51.375 L12.046875,51.375 C10.921875,51.375 10.171875,50.625 10.171875,49.5 L10.171875,46.5 C10.171875,45.375 10.921875,44.625 12.046875,44.625 L17.296875,44.625 C18.421875,44.625 19.171875,45.375 19.171875,46.5 L19.171875,49.5 C18.796875,50.25 18.046875,51.375 16.921875,51.375 L16.921875,51.375 Z M30.046875,51.375 L24.796875,51.375 C23.671875,51.375 22.921875,50.625 22.921875,49.5 L22.921875,46.5 C22.921875,45.375 23.671875,44.625 24.796875,44.625 L30.046875,44.625 C31.171875,44.625 31.921875,45.375 31.921875,46.5 L31.921875,49.5 C31.921875,50.25 31.171875,51.375 30.046875,51.375 L30.046875,51.375 Z M42.796875,51.375 L37.546875,51.375 C36.421875,51.375 35.671875,50.625 35.671875,49.5 L35.671875,46.5 C35.671875,45.375 36.421875,44.625 37.546875,44.625 L42.796875,44.625 C43.921875,44.625 44.671875,45.375 44.671875,46.5 L44.671875,49.5 C44.671875,50.25 43.921875,51.375 42.796875,51.375 L42.796875,51.375 Z" id="Shape"></path>
            </g>
        </g>
    </g>
</svg>