<?xml version="1.0" encoding="UTF-8" standalone="no"?>
<svg width="31px" height="27px" viewBox="0 0 31 27" version="1.1" xmlns="http://www.w3.org/2000/svg" xmlns:xlink="http://www.w3.org/1999/xlink">
    <!-- Generator: Sketch 3.8.3 (29802) - http://www.bohemiancoding.com/sketch -->
    <title>4c2184abd9c802d816955fa519670bc7</title>
    <desc>Created with Sketch.</desc>
    <defs></defs>
    <g id="Page-1" stroke="none" stroke-width="1" fill="none" fill-rule="evenodd">
        <g id="首页" transform="translate(-79.000000, -2586.000000)" fill="#F75429">
            <path d="M104.866965,2586.00128 L95.078951,2586.00128 C92.7822517,2586.00128 90.8846154,2587.88715 90.8846154,2590.14681 L90.8846154,2598.16825 L85.2909371,2598.16825 C84.7158182,2598.16825 84.2496643,2598.63332 84.2496643,2599.19908 C84.2496643,2599.76496 84.7158182,2600.22987 85.2909371,2600.22987 L90.8846154,2600.22987 L90.8846154,2608.20614 L89.7964755,2608.20614 C89.341986,2606.65137 87.8682098,2605.47398 86.124014,2605.47398 C84.3796503,2605.47398 82.906042,2606.65137 82.4515524,2608.20614 L81.0953007,2608.20614 L81.0953007,2599.23132 C81.0953007,2595.6215 82.8988252,2593.26767 85.6427972,2593.26767 L87.9288811,2593.26767 C88.504,2593.26767 88.9701119,2592.80272 88.9701119,2592.23683 C88.9701119,2591.67111 88.504,2591.206 87.9288811,2591.206 L85.6427972,2591.206 C83.7392867,2591.206 82.0160699,2592.01427 80.8297483,2593.4515 C79.6469091,2594.88453 79,2596.89421 79,2599.23132 L79,2609.27214 C79,2609.83786 79.5094126,2610.2678 80.0845315,2610.2678 L82.4513846,2610.2678 C82.9058741,2611.8224 84.3796503,2613 86.1238462,2613 C87.8682098,2613 89.3418182,2611.8224 89.7963077,2610.2678 L98.0010769,2610.2678 C98.4557343,2611.8224 99.9293427,2613 101.673748,2613 C103.417944,2613 104.89172,2611.8224 105.34621,2610.2678 L107.990699,2610.2678 C108.565818,2610.2678 109.020643,2609.83786 109.020643,2609.27214 L109.020643,2590.14681 C109.020811,2587.88715 107.163664,2586.00128 104.866965,2586.00128 L104.866965,2586.00128 Z M86.1238462,2610.97962 C85.166993,2610.97962 84.3885035,2610.21359 84.3885035,2609.27198 C84.3885035,2608.33049 85.166993,2607.56445 86.1238462,2607.56445 C87.0808671,2607.56445 87.8593566,2608.33049 87.8593566,2609.27198 C87.8593566,2610.21359 87.0808671,2610.97962 86.1238462,2610.97962 L86.1238462,2610.97962 Z M101.673748,2610.97962 C100.716727,2610.97962 99.9381958,2610.21359 99.9381958,2609.27198 C99.9381958,2608.33049 100.716727,2607.56445 101.673748,2607.56445 C102.630727,2607.56445 103.409259,2608.33049 103.409259,2609.27198 C103.409259,2610.21359 102.630727,2610.97962 101.673748,2610.97962 L101.673748,2610.97962 Z M106.925552,2608.20614 L105.34621,2608.20614 C104.89172,2606.65137 103.417944,2605.47398 101.673748,2605.47398 C99.9295105,2605.47398 98.4557343,2606.65137 98.0012448,2608.20614 L92.9799161,2608.20614 L92.9799161,2590.14681 C92.9799161,2589.01698 93.9306853,2588.0629 95.078951,2588.0629 L104.866965,2588.0629 C106.015231,2588.0629 106.925552,2589.01698 106.925552,2590.14681 L106.925552,2608.20614 L106.925552,2608.20614 Z" id="4c2184abd9c802d816955fa519670bc7"></path>
        </g>
    </g>
</svg>