<?xml version="1.0" encoding="UTF-8" standalone="no"?>
<svg width="52px" height="60px" viewBox="0 0 52 60" version="1.1" xmlns="http://www.w3.org/2000/svg" xmlns:xlink="http://www.w3.org/1999/xlink">
    <!-- Generator: Sketch 3.8.3 (29802) - http://www.bohemiancoding.com/sketch -->
    <title>Group</title>
    <desc>Created with Sketch.</desc>
    <defs></defs>
    <g id="Page-1" stroke="none" stroke-width="1" fill="none" fill-rule="evenodd">
        <g id="口岸服务" transform="translate(-805.000000, -2376.000000)" fill="#FE3F80">
            <g id="Group" transform="translate(805.500000, 2376.000000)">
                <path d="M49.0205217,8.67668334 L49.0205217,8.67702562 C42.121316,5.47205799 29.4575767,0.0444282274 25.7501965,0.0319705686 C22.0502087,0.0460025418 9.3317105,5.49026528 2.39951264,8.7050895 C0.944911973,9.37910261 -0.0126151171,10.9169367 0.019418796,12.5299274 C0.136397391,18.3838549 0.913836321,26.9736035 3.95836047,34.6507957 C10.5562556,51.2886593 22.1329631,59.0926868 25.3792736,59.9120162 C25.4938566,59.9398748 25.6106298,59.9540436 25.7279507,59.9540436 C25.8503367,59.9540436 25.9729966,59.940217 26.0914811,59.9062665 C29.8081702,58.9249193 41.2255295,50.2658322 47.4355265,34.6559978 C50.4791608,27.0079647 51.2634446,18.3770785 51.3845986,12.4821503 C51.4132785,11.0527387 50.3080394,9.27478702 49.0205217,8.67668334 L49.0205217,8.67668334 Z M44.7864297,33.6010684 L44.7862243,33.6005892 C38.9995134,48.1432419 28.6114154,55.8520574 25.7148086,57.0280039 C22.68548,55.8905255 12.5918478,48.6782361 6.61204334,33.5977144 C3.72515625,26.3186191 2.98529559,18.0930169 2.87310836,12.4747579 C2.86229351,11.9258003 3.22972542,11.465689 3.60112742,11.2945676 C13.9188603,6.51076508 23.4464228,2.89572207 25.7510863,2.88627612 C28.0656748,2.89490067 37.5523736,6.49645933 47.8162374,11.2658876 C48.0753153,11.4007312 48.538849,12.1076682 48.5322779,12.4266385 C48.4167368,18.0844609 47.6711265,26.350653 44.7864297,33.6010684 L44.7864297,33.6010684 Z M27.4570986,27.0763448 L26.4126418,28.4777609 C30.2174243,30.890094 33.5128809,33.1069381 36.2986695,35.1282245 L37.5726344,33.3445915 C36.3495953,32.5463442 34.8207963,31.5780022 32.9861692,30.4398393 C34.5489186,29.7943008 36.1541746,29.1403431 37.8018687,28.4777609 L36.5025779,26.7195908 C34.7189449,27.6877959 32.97775,28.5796809 31.2791987,29.3951772 C30.1070167,28.6816008 28.8330518,27.9086795 27.4570986,27.0763448 L27.4570986,27.0763448 Z M24.8073174,34.8988534 C26.4549431,34.100743 28.085525,33.3955173 29.6994055,32.7840662 C29.6312307,32.1385277 29.588861,31.4675264 29.5720227,30.7710621 C27.6184319,31.6204405 25.9621817,32.3083486 24.6034775,32.8350604 L24.6034775,26.1843915 L33.5722259,26.1843914 L33.5722259,26.8469736 L35.4833101,26.8469736 L35.4833101,15.2277596 L22.6669304,15.2277596 L22.6669304,32.1470153 C22.6669304,32.8266412 22.4205156,33.4041419 21.9280965,33.8797225 L23.3805068,35.7908068 C23.8560191,35.451028 24.3315997,35.1536874 24.8073174,34.8988534 L24.8073174,34.8988534 Z M24.6034775,16.9604668 L33.5722259,16.9604668 L33.5722259,19.865219 L24.6034775,19.865219 L24.6034775,16.9604668 L24.6034775,16.9604668 Z M24.6034775,21.546932 L33.5722259,21.546932 L33.5722259,24.4516842 L24.6034775,24.4516842 L24.6034775,21.546932 L24.6034775,21.546932 Z M23.6607353,36.6315606 C21.214657,36.5635227 19.464906,35.7058621 18.4118247,34.0580995 L18.4118247,23.1777193 L13.4179536,23.1777193 L13.4179536,25.0633407 L16.4499516,25.0633407 L16.4499517,33.6503514 C15.7703258,34.2788462 14.6833624,35.3152261 13.1885825,36.7590118 L14.2332446,38.8739359 C15.5751105,37.2431486 16.5942413,36.1048488 17.2909109,35.4595157 C18.4798627,37.3960627 20.5011491,38.3897307 23.3549071,38.4407249 C28.0771058,38.5426448 32.9097806,38.5765953 37.852726,38.5426448 C38.1415106,37.761099 38.3793009,37.0902345 38.566234,36.5296407 C33.4532622,36.6653058 28.4847171,36.6995985 23.6607353,36.6315606 L23.6607353,36.6315606 Z M19.9406921,19.432008 C18.4287315,17.2747142 17.2397798,15.6693898 16.3735631,14.6161716 L14.7427758,15.7117595 C15.6261046,16.8840098 16.7557799,18.5486791 18.1317332,20.7059728 L19.9406921,19.432008 L19.9406921,19.432008 Z" id="Shape"></path>
            </g>
        </g>
    </g>
</svg>